<?xml version="1.0" standalone="no"?>
<!DOCTYPE svg PUBLIC "-//W3C//DTD SVG 20010904//EN"
 "http://www.w3.org/TR/2001/REC-SVG-20010904/DTD/svg10.dtd">
<svg version="1.0" xmlns="http://www.w3.org/2000/svg"
 width="2048.000000pt" height="2048.000000pt" viewBox="0 0 2048.000000 2048.000000"
 preserveAspectRatio="xMidYMid meet">
<metadata>
Created by potrace 1.14, written by Peter Selinger 2001-2017
</metadata>
<g transform="translate(0.000000,2048.000000) scale(0.100000,-0.100000)"
fill="#000000" stroke="none">
<path d="M9578 20428 c-26 -29 -87 -94 -135 -144 -48 -50 -160 -167 -248 -259
-88 -93 -187 -196 -220 -231 -154 -160 -368 -384 -415 -434 -28 -30 -89 -93
-133 -140 -45 -47 -167 -175 -272 -284 -104 -110 -236 -247 -291 -305 -56 -58
-123 -128 -149 -156 -38 -41 -209 -220 -420 -440 -113 -119 -378 -396 -420
-440 -26 -27 -115 -121 -199 -208 -83 -87 -171 -180 -195 -205 -24 -26 -124
-130 -221 -232 -98 -102 -195 -204 -216 -226 -21 -23 -120 -127 -220 -230
-100 -104 -198 -207 -218 -229 -21 -22 -111 -116 -201 -210 -89 -93 -184 -192
-210 -220 -26 -27 -120 -126 -210 -220 -249 -260 -242 -251 -249 -304 -4 -25
-9 -62 -12 -81 -2 -19 -7 -48 -9 -65 -3 -16 -9 -68 -15 -115 -6 -47 -13 -96
-15 -110 -2 -14 -7 -47 -10 -75 -3 -27 -8 -61 -10 -75 -2 -14 -7 -45 -10 -70
-4 -25 -8 -57 -11 -71 -2 -15 -6 -45 -9 -68 -3 -23 -7 -58 -10 -78 -4 -35 -11
-81 -20 -143 -2 -14 -7 -50 -10 -80 -3 -30 -8 -62 -10 -70 -2 -8 -6 -37 -10
-65 -10 -91 -14 -116 -19 -143 -3 -15 -8 -52 -11 -83 -3 -31 -7 -65 -9 -75 -4
-20 -15 -98 -21 -149 -4 -26 -19 -139 -30 -215 -12 -86 -15 -110 -20 -150 -6
-52 -18 -139 -40 -290 -8 -58 -17 -125 -20 -150 -5 -42 -12 -91 -20 -150 -2
-14 -7 -45 -10 -70 -3 -25 -8 -56 -10 -70 -2 -14 -9 -63 -15 -110 -6 -47 -13
-98 -16 -115 -2 -16 -6 -47 -9 -67 -2 -21 -6 -53 -9 -70 -5 -30 -8 -57 -22
-168 -2 -19 -6 -46 -9 -60 -3 -14 -7 -45 -10 -70 -5 -43 -42 -316 -50 -370 -2
-14 -7 -50 -10 -80 -4 -30 -9 -62 -10 -71 -2 -9 -6 -40 -10 -70 -3 -30 -10
-79 -15 -109 -5 -30 -12 -77 -15 -105 -3 -27 -8 -61 -10 -75 -2 -14 -6 -47
-10 -75 -8 -62 -15 -112 -20 -145 -2 -14 -7 -48 -10 -76 -3 -28 -7 -60 -9 -71
-3 -11 -7 -44 -11 -74 -3 -30 -8 -61 -10 -69 -2 -8 -7 -44 -10 -80 -4 -36 -9
-74 -11 -85 -2 -11 -7 -40 -10 -65 -3 -25 -7 -56 -9 -70 -2 -14 -7 -47 -10
-75 -4 -27 -8 -61 -10 -75 -2 -14 -7 -47 -10 -75 -3 -27 -8 -61 -10 -75 -2
-14 -7 -45 -10 -70 -3 -25 -10 -72 -15 -105 -5 -33 -12 -82 -15 -110 -3 -27
-12 -95 -20 -150 -8 -55 -17 -120 -20 -145 -4 -25 -8 -56 -10 -70 -2 -14 -9
-63 -15 -110 -6 -47 -13 -100 -15 -118 -3 -17 -7 -49 -10 -70 -3 -20 -7 -50
-10 -67 -2 -16 -7 -52 -10 -80 -4 -27 -8 -61 -11 -75 -5 -30 -22 -160 -29
-215 -2 -22 -7 -56 -10 -75 -2 -19 -7 -55 -10 -80 -6 -45 -8 -58 -20 -140 -8
-58 -12 -83 -20 -150 -4 -30 -9 -63 -11 -74 -2 -10 -6 -44 -10 -75 -3 -31 -8
-63 -9 -73 -2 -9 -6 -38 -10 -65 -4 -26 -9 -59 -11 -73 -2 -14 -6 -50 -10 -80
-3 -30 -8 -64 -10 -75 -2 -11 -6 -42 -9 -70 -3 -27 -7 -61 -10 -75 -2 -14 -7
-45 -10 -70 -4 -25 -8 -56 -10 -70 -2 -14 -7 -50 -10 -80 -3 -30 -8 -62 -10
-70 -2 -8 -6 -37 -10 -65 -9 -80 -13 -108 -19 -145 -3 -19 -8 -57 -11 -85 -3
-27 -8 -63 -10 -80 -23 -156 -35 -248 -40 -290 -3 -27 -8 -62 -11 -77 -5 -24
6 -40 84 -120 49 -51 106 -112 128 -134 21 -23 113 -119 204 -214 91 -95 185
-194 210 -220 124 -130 380 -398 420 -440 25 -26 122 -128 216 -226 95 -98
191 -199 214 -224 23 -25 113 -119 200 -210 87 -91 180 -188 207 -216 26 -28
121 -127 209 -220 89 -93 185 -194 214 -224 29 -30 98 -103 154 -161 221 -231
463 -484 491 -514 32 -34 317 -333 400 -420 84 -87 378 -396 414 -434 19 -20
86 -90 150 -157 98 -102 311 -325 491 -514 127 -134 514 -539 630 -659 30 -32
127 -133 215 -226 88 -93 187 -196 220 -230 49 -51 227 -238 425 -446 19 -20
74 -78 122 -128 l88 -91 89 63 c49 34 128 89 176 122 48 33 102 71 121 85 19
14 62 44 96 68 143 99 536 372 568 396 29 21 589 411 640 446 8 6 94 66 190
133 174 122 377 264 500 349 36 25 207 145 380 266 173 121 358 250 410 286
52 37 226 158 385 269 393 275 737 515 755 527 119 83 349 244 362 255 9 7 27
19 40 26 13 6 25 15 28 18 3 4 145 104 315 222 369 257 499 347 768 536 111
78 222 156 247 173 25 17 104 72 175 122 72 50 157 110 190 133 97 67 691 482
798 557 l97 69 -27 28 c-16 16 -93 97 -173 181 -80 84 -163 171 -185 194 -65
68 -397 415 -435 455 -19 20 -108 113 -197 206 -88 94 -185 195 -214 225 -28
30 -129 136 -224 235 -95 99 -194 203 -220 230 -39 42 -264 277 -420 440 -22
22 -116 122 -210 220 -284 298 -567 594 -635 665 -19 20 -108 112 -197 206
-88 93 -187 197 -220 230 -32 34 -123 130 -203 214 -80 84 -172 180 -205 215
-54 56 -161 168 -495 519 -58 60 -157 164 -221 230 -64 67 -152 159 -197 206
-44 47 -108 114 -141 149 -34 35 -61 67 -61 71 0 4 27 36 61 71 33 35 97 102
142 149 44 47 160 168 258 270 98 102 197 205 220 230 23 25 114 121 203 213
89 93 186 195 216 227 142 149 373 390 420 440 29 30 131 138 229 239 97 102
187 197 201 211 14 15 104 110 201 211 98 101 191 200 209 219 18 19 116 123
219 230 102 107 224 234 271 283 47 49 110 115 140 147 30 32 132 138 225 236
94 98 217 227 275 288 58 60 119 125 137 143 l32 34 -42 43 c-23 23 -114 118
-202 211 -173 182 -196 205 -438 459 -89 93 -179 188 -201 210 -73 78 -401
421 -488 511 -47 49 -108 113 -135 141 -26 28 -122 128 -213 223 -91 95 -183
192 -204 215 -52 54 -346 363 -416 435 -54 56 -327 343 -430 451 -29 30 -123
129 -210 220 -87 91 -181 190 -210 220 -29 30 -120 126 -204 213 -83 87 -177
186 -210 220 -32 34 -131 138 -220 231 -88 93 -181 190 -206 216 -25 26 -119
125 -210 220 -232 243 -236 248 -420 441 -91 95 -213 222 -271 283 -59 61
-121 127 -139 146 -18 19 -110 115 -204 214 -218 227 -240 250 -421 441 -82
86 -211 220 -285 297 l-135 139 -47 -53z"/>
</g>
</svg>
