<?xml version="1.0" standalone="no"?>
<!DOCTYPE svg PUBLIC "-//W3C//DTD SVG 20010904//EN"
 "http://www.w3.org/TR/2001/REC-SVG-20010904/DTD/svg10.dtd">
<svg version="1.0" xmlns="http://www.w3.org/2000/svg"
 width="2865.000000pt" height="2865.000000pt" viewBox="0 0 2865.000000 2865.000000"
 preserveAspectRatio="xMidYMid meet">
<metadata>
Created by potrace 1.14, written by Peter Selinger 2001-2017
</metadata>
<g transform="translate(0.000000,2865.000000) scale(0.100000,-0.100000)"
fill="#000000" stroke="none">
<path d="M11468 22263 l-3178 -3178 -155 -1085 c-85 -596 -155 -1090 -155
-1097 0 -7 50 -28 112 -48 240 -78 478 -121 745 -135 237 -13 11328 -13 11558
0 188 10 303 27 472 71 547 140 1057 508 1355 980 l36 56 -3807 3807 -3806
3806 -3177 -3177z"/>
<path d="M7690 14886 c0 -6 -223 -1568 -494 -3470 l-494 -3460 3970 -3975
c2184 -2187 3974 -3975 3979 -3973 8 2 9516 6337 9529 6349 2 2 -1427 1435
-3175 3183 l-3180 3180 1000 1000 999 1000 -5574 3 c-5101 3 -5587 5 -5720 20
-268 30 -493 69 -706 121 -85 21 -134 29 -134 22z"/>
</g>
</svg>
